<mxfile host="app.diagrams.net" modified="2023-09-22T21:28:30.718Z" agent="Mozilla/5.0 (Windows NT 10.0; Win64; x64) AppleWebKit/537.36 (KHTML, like Gecko) Chrome/116.0.0.0 Safari/537.36" etag="-cSajJj_wmpENryQ6DoX" version="21.8.1" type="device">
  <diagram name="Página-1" id="Y1rJZSPPJVJrCGBIQnTU">
    <mxGraphModel dx="794" dy="456" grid="1" gridSize="10" guides="1" tooltips="1" connect="1" arrows="1" fold="1" page="1" pageScale="1" pageWidth="827" pageHeight="1169" math="0" shadow="0">
      <root>
        <mxCell id="0" />
        <mxCell id="1" parent="0" />
        <mxCell id="X2IslkczF8gLZ0zD3pSP-1" value="" style="rounded=0;whiteSpace=wrap;html=1;" vertex="1" parent="1">
          <mxGeometry x="270" y="390" width="330" height="670" as="geometry" />
        </mxCell>
        <mxCell id="X2IslkczF8gLZ0zD3pSP-2" style="edgeStyle=orthogonalEdgeStyle;rounded=0;orthogonalLoop=1;jettySize=auto;html=1;exitX=1;exitY=0.3333333333333333;exitDx=0;exitDy=0;exitPerimeter=0;entryX=0;entryY=0.5;entryDx=0;entryDy=0;" edge="1" parent="1" source="X2IslkczF8gLZ0zD3pSP-5" target="X2IslkczF8gLZ0zD3pSP-9">
          <mxGeometry relative="1" as="geometry">
            <Array as="points">
              <mxPoint x="200" y="450" />
              <mxPoint x="200" y="450" />
            </Array>
          </mxGeometry>
        </mxCell>
        <mxCell id="X2IslkczF8gLZ0zD3pSP-3" style="edgeStyle=orthogonalEdgeStyle;rounded=0;orthogonalLoop=1;jettySize=auto;html=1;exitX=1;exitY=0.3333333333333333;exitDx=0;exitDy=0;exitPerimeter=0;entryX=0;entryY=0.5;entryDx=0;entryDy=0;" edge="1" parent="1" source="X2IslkczF8gLZ0zD3pSP-8" target="X2IslkczF8gLZ0zD3pSP-13">
          <mxGeometry relative="1" as="geometry">
            <Array as="points">
              <mxPoint x="120" y="810" />
              <mxPoint x="120" y="780" />
              <mxPoint x="160" y="780" />
              <mxPoint x="160" y="570" />
            </Array>
          </mxGeometry>
        </mxCell>
        <mxCell id="X2IslkczF8gLZ0zD3pSP-4" style="edgeStyle=orthogonalEdgeStyle;rounded=0;orthogonalLoop=1;jettySize=auto;html=1;exitX=1;exitY=0.3333333333333333;exitDx=0;exitDy=0;exitPerimeter=0;entryX=0;entryY=0.5;entryDx=0;entryDy=0;" edge="1" parent="1" source="X2IslkczF8gLZ0zD3pSP-8" target="X2IslkczF8gLZ0zD3pSP-14">
          <mxGeometry relative="1" as="geometry">
            <Array as="points">
              <mxPoint x="190" y="810" />
              <mxPoint x="190" y="670" />
            </Array>
          </mxGeometry>
        </mxCell>
        <mxCell id="X2IslkczF8gLZ0zD3pSP-5" value="Empleado" style="shape=umlActor;verticalLabelPosition=bottom;verticalAlign=top;html=1;outlineConnect=0;" vertex="1" parent="1">
          <mxGeometry x="70" y="430" width="30" height="60" as="geometry" />
        </mxCell>
        <mxCell id="X2IslkczF8gLZ0zD3pSP-6" value="Servidor del banco" style="shape=umlActor;verticalLabelPosition=bottom;verticalAlign=top;html=1;outlineConnect=0;" vertex="1" parent="1">
          <mxGeometry x="660" y="790" width="30" height="60" as="geometry" />
        </mxCell>
        <mxCell id="X2IslkczF8gLZ0zD3pSP-7" style="edgeStyle=orthogonalEdgeStyle;rounded=0;orthogonalLoop=1;jettySize=auto;html=1;exitX=1;exitY=0.3333333333333333;exitDx=0;exitDy=0;exitPerimeter=0;entryX=0;entryY=0.5;entryDx=0;entryDy=0;" edge="1" parent="1" source="X2IslkczF8gLZ0zD3pSP-8" target="X2IslkczF8gLZ0zD3pSP-12">
          <mxGeometry relative="1" as="geometry">
            <Array as="points">
              <mxPoint x="120" y="810" />
              <mxPoint x="120" y="870" />
            </Array>
          </mxGeometry>
        </mxCell>
        <mxCell id="X2IslkczF8gLZ0zD3pSP-26" style="edgeStyle=orthogonalEdgeStyle;rounded=0;orthogonalLoop=1;jettySize=auto;html=1;exitX=1;exitY=0.3333333333333333;exitDx=0;exitDy=0;exitPerimeter=0;entryX=0;entryY=0.5;entryDx=0;entryDy=0;" edge="1" parent="1" source="X2IslkczF8gLZ0zD3pSP-8" target="X2IslkczF8gLZ0zD3pSP-24">
          <mxGeometry relative="1" as="geometry">
            <Array as="points">
              <mxPoint x="120" y="810" />
              <mxPoint x="120" y="840" />
              <mxPoint x="220" y="840" />
              <mxPoint x="220" y="770" />
            </Array>
          </mxGeometry>
        </mxCell>
        <mxCell id="X2IslkczF8gLZ0zD3pSP-8" value="Usuario" style="shape=umlActor;verticalLabelPosition=bottom;verticalAlign=top;html=1;outlineConnect=0;" vertex="1" parent="1">
          <mxGeometry x="70" y="790" width="30" height="60" as="geometry" />
        </mxCell>
        <mxCell id="X2IslkczF8gLZ0zD3pSP-9" value="" style="ellipse;whiteSpace=wrap;html=1;" vertex="1" parent="1">
          <mxGeometry x="294" y="410" width="120" height="80" as="geometry" />
        </mxCell>
        <mxCell id="X2IslkczF8gLZ0zD3pSP-10" value="Registrar retiro" style="text;html=1;strokeColor=none;fillColor=none;align=center;verticalAlign=middle;whiteSpace=wrap;rounded=0;" vertex="1" parent="1">
          <mxGeometry x="324" y="435" width="60" height="30" as="geometry" />
        </mxCell>
        <mxCell id="X2IslkczF8gLZ0zD3pSP-27" style="edgeStyle=orthogonalEdgeStyle;rounded=0;orthogonalLoop=1;jettySize=auto;html=1;exitX=1;exitY=0.5;exitDx=0;exitDy=0;" edge="1" parent="1" source="X2IslkczF8gLZ0zD3pSP-12" target="X2IslkczF8gLZ0zD3pSP-6">
          <mxGeometry relative="1" as="geometry" />
        </mxCell>
        <mxCell id="X2IslkczF8gLZ0zD3pSP-12" value="Abonar monto" style="ellipse;whiteSpace=wrap;html=1;" vertex="1" parent="1">
          <mxGeometry x="294" y="830" width="120" height="80" as="geometry" />
        </mxCell>
        <mxCell id="X2IslkczF8gLZ0zD3pSP-13" value="Iniciar sesión" style="ellipse;whiteSpace=wrap;html=1;" vertex="1" parent="1">
          <mxGeometry x="294" y="530" width="120" height="80" as="geometry" />
        </mxCell>
        <mxCell id="X2IslkczF8gLZ0zD3pSP-14" value="Cerrar sesión" style="ellipse;whiteSpace=wrap;html=1;" vertex="1" parent="1">
          <mxGeometry x="294" y="630" width="120" height="80" as="geometry" />
        </mxCell>
        <mxCell id="X2IslkczF8gLZ0zD3pSP-17" style="edgeStyle=orthogonalEdgeStyle;rounded=0;orthogonalLoop=1;jettySize=auto;html=1;exitX=1;exitY=0.3333333333333333;exitDx=0;exitDy=0;exitPerimeter=0;entryX=0;entryY=0.5;entryDx=0;entryDy=0;" edge="1" parent="1" source="X2IslkczF8gLZ0zD3pSP-18" target="X2IslkczF8gLZ0zD3pSP-19">
          <mxGeometry relative="1" as="geometry" />
        </mxCell>
        <mxCell id="X2IslkczF8gLZ0zD3pSP-18" value="Persona" style="shape=umlActor;verticalLabelPosition=bottom;verticalAlign=top;html=1;outlineConnect=0;" vertex="1" parent="1">
          <mxGeometry x="70" y="970" width="30" height="60" as="geometry" />
        </mxCell>
        <mxCell id="X2IslkczF8gLZ0zD3pSP-19" value="Registrarse" style="ellipse;whiteSpace=wrap;html=1;" vertex="1" parent="1">
          <mxGeometry x="294" y="950" width="120" height="80" as="geometry" />
        </mxCell>
        <mxCell id="X2IslkczF8gLZ0zD3pSP-24" value="Subir foto" style="ellipse;whiteSpace=wrap;html=1;" vertex="1" parent="1">
          <mxGeometry x="294" y="730" width="120" height="80" as="geometry" />
        </mxCell>
      </root>
    </mxGraphModel>
  </diagram>
</mxfile>
